{"asset":{"version":"2.0","generator":"VECTARY"},"nodes":[{"translation":[3.0517578125e-7,-1.4871255871254374e-9,0.00009277343749999997],"scale":[0.01,0.009999999999999998,0.009999999999999998],"rotation":[-0.7071067811865475,0,0,0.7071067811865476],"name":"Bathtub_sample","mesh":0},{"translation":[-0.6506836156682781,0.7438347735468367,1.509444659168098],"scale":[1,1,1],"rotation":[-0.1364528274936421,-0.23818947597403997,-0.03382097012416169,0.9609903960935631],"name":"Camera","camera":0}],"materials":[{"pbrMetallicRoughness":{"baseColorFactor":[1,1,1,1],"baseColorTexture":{"index":0,"extensions":{"KHR_texture_transform":{"offset":[0,0],"scale":[1,1],"rotation":0}},"texCoord":0},"metallicRoughnessTexture":{"index":2,"extensions":{"KHR_texture_transform":{"offset":[0,0],"scale":[1,1],"rotation":0}},"texCoord":0},"metallicFactor":0,"roughnessFactor":0.11},"name":"Bathtub_sample_mat","normalTexture":{"index":1,"scale":2,"extensions":{"KHR_texture_transform":{"offset":[0,0],"scale":[1,1],"rotation":0}},"texCoord":0},"emissiveFactor":[0,0,0],"occlusionTexture":{"index":3,"strength":1,"extensions":{"KHR_texture_transform":{"offset":[0,0],"scale":[1,1],"rotation":0}},"texCoord":0},"alphaMode":"OPAQUE","doubleSided":false}],"textures":[{"sampler":0,"source":0},{"sampler":0,"source":1},{"sampler":0,"source":2},{"sampler":0,"source":3}],"images":[{"uri":"854696e0-8a07-40b6-85ff-602468cadb42.jpg","mimeType":"image/jpeg"},{"uri":"5e6d6446-24bb-4847-874d-63179ab5a787.png","mimeType":"image/png"},{"uri":"4391f448-b6f0-49a8-ba9a-6d2fbaa97a5e.jpg","mimeType":"image/jpeg"},{"uri":"47f5ee75-7e09-4b66-a1a7-7538736c3ce4.png","mimeType":"image/png"}],"samplers":[{"wrapS":10497,"wrapT":10497}],"meshes":[{"primitives":[{"mode":4,"attributes":{"POSITION":1,"NORMAL":2,"TEXCOORD_0":3},"material":0,"indices":0}]}],"accessors":[{"bufferView":0,"byteOffset":0,"componentType":5125,"count":88866,"type":"SCALAR"},{"bufferView":1,"byteOffset":0,"componentType":5126,"count":88866,"max":[42.06036376953125,82.938232421875,46.247283935546875],"min":[-42.06036376953125,-82.938232421875,0],"type":"VEC3"},{"bufferView":2,"byteOffset":0,"componentType":5126,"count":88866,"type":"VEC3"},{"bufferView":3,"byteOffset":0,"componentType":5126,"count":88866,"type":"VEC2"}],"bufferViews":[{"buffer":0,"byteOffset":0,"byteLength":355464,"target":34963},{"buffer":0,"byteOffset":355464,"byteLength":1066392,"target":34962},{"buffer":0,"byteOffset":1421856,"byteLength":1066392,"target":34962},{"buffer":0,"byteOffset":2488248,"byteLength":710928,"target":34962}],"cameras":[{"name":"Camera","type":"perspective","extras":{"targetDistance":1.596921650707101},"perspective":{"aspectRatio":1.6864608076009502,"yfov":0.6108652381980153,"zfar":80.6510878356534,"znear":0.007224716909448638}}],"scene":0,"scenes":[{"nodes":[0,1],"name":"Bathtub_sample_01"}],"extensionsUsed":["KHR_texture_transform"],"buffers":[{"byteLength":3199176,"uri":"Bathtub_sample_01.bin"}]}