{"asset":{"version":"2.0","generator":"Point105-AR.GLTFExporter"},"scenes":[{"nodes":[0,1,2,3,4]}],"scene":0,"nodes":[{"matrix":[0.025400000000000002,0,0,0,0,0.025400000000000002,0,0,0,0,0.025400000000000002,0,0.05127105288505555,0.45390194549560553,-0.03721185169219971,1],"name":"eames_seat_LOD001","mesh":0},{"matrix":[0.025400000000000002,0,0,0,0,0.025400000000000002,0,0,0,0,0.025400000000000002,0,0.052501640319824225,0.40577261581420904,0.09985290460586549,1],"name":"eames_metal_LOD001","mesh":1},{"matrix":[0.025400000000000002,0,0,0,0,0.025400000000000002,0,0,0,0,0.025400000000000002,0,-0.05461353902816773,0.3666121427536011,0.004422324997186661,1],"name":"eames_metal_nuts_LOD001","mesh":2},{"matrix":[0.025400000000000002,0,0,0,0,0.025400000000000002,0,0,0,0,0.025400000000000002,0,0.05127105288505555,0.45390194549560553,-0.03721185169219971,1],"name":"eames_rubber_LOD001","mesh":3},{"matrix":[0.025400000000000002,0,0,0,0,0.025400000000000002,0,0,0,0,0.025400000000000002,0,0.05127105288505555,0.45390194549560553,-0.03721185169219971,1],"name":"eames_legs_LOD001","mesh":4}],"bufferViews":[{"buffer":0,"byteOffset":0,"byteLength":3458592,"target":34962,"byteStride":12},{"buffer":0,"byteOffset":3458592,"byteLength":3458592,"target":34962,"byteStride":12},{"buffer":0,"byteOffset":6917184,"byteLength":2305728,"target":34962,"byteStride":8},{"buffer":0,"byteOffset":9222912,"byteLength":1152864,"target":34963},{"buffer":0,"byteOffset":10375776,"byteLength":109728,"target":34962,"byteStride":12},{"buffer":0,"byteOffset":10485504,"byteLength":109728,"target":34962,"byteStride":12},{"buffer":0,"byteOffset":10595232,"byteLength":73152,"target":34962,"byteStride":8},{"buffer":0,"byteOffset":10668384,"byteLength":18288,"target":34963},{"buffer":0,"byteOffset":10686672,"byteLength":6336,"target":34962,"byteStride":12},{"buffer":0,"byteOffset":10693008,"byteLength":6336,"target":34962,"byteStride":12},{"buffer":0,"byteOffset":10699344,"byteLength":4224,"target":34962,"byteStride":8},{"buffer":0,"byteOffset":10703568,"byteLength":1056,"target":34963},{"buffer":0,"byteOffset":10704624,"byteLength":10080,"target":34962,"byteStride":12},{"buffer":0,"byteOffset":10714704,"byteLength":10080,"target":34962,"byteStride":12},{"buffer":0,"byteOffset":10724784,"byteLength":6720,"target":34962,"byteStride":8},{"buffer":0,"byteOffset":10731504,"byteLength":1680,"target":34963},{"buffer":0,"byteOffset":10733184,"byteLength":15264,"target":34962,"byteStride":12},{"buffer":0,"byteOffset":10748448,"byteLength":15264,"target":34962,"byteStride":12},{"buffer":0,"byteOffset":10763712,"byteLength":10176,"target":34962,"byteStride":8},{"buffer":0,"byteOffset":10773888,"byteLength":2544,"target":34963}],"buffers":[{"byteLength":10776432,"uri":"ec_vray.bin"}],"accessors":[{"bufferView":0,"componentType":5126,"count":288216,"max":[9.161092758178711,15.0111083984375,13.87293529510498],"min":[-9.161093711853027,-1.8784236907958984,-5.373198986053467],"type":"VEC3"},{"bufferView":1,"componentType":5126,"count":288216,"max":[0.9995802044868469,0.9999721050262451,0.9977113604545593],"min":[-0.9995793104171753,-0.9999992251396179,-0.9999956488609314],"type":"VEC3"},{"bufferView":2,"componentType":5126,"count":288216,"max":[0.9711282849311829,0.9914222359657288],"min":[0.014882819727063179,0.026413798332214355],"type":"VEC2"},{"bufferView":3,"componentType":5125,"count":288216,"max":[288215],"min":[0],"type":"SCALAR"},{"bufferView":4,"componentType":5126,"count":9144,"max":[5.825924873352051,0.9408187866210938,5.072934627532959],"min":[-5.961264610290527,-7.670682907104492,-5.482451438903809],"type":"VEC3"},{"bufferView":5,"componentType":5126,"count":9144,"max":[0.9961766004562378,1,0.9961271286010742],"min":[-0.9964783787727356,-1,-0.9925293326377869],"type":"VEC3"},{"bufferView":6,"componentType":5126,"count":9144,"max":[4.524009704589844,5.046067714691162],"min":[-5.797208309173584,-4.000422477722168],"type":"VEC2"},{"bufferView":7,"componentType":5123,"count":9144,"max":[9143],"min":[0],"type":"SCALAR"},{"bufferView":8,"componentType":5126,"count":528,"max":[9.920167922973633,0.11149215698242188,8.705849647521973],"min":[-1.6199350357055664,-5.485618591308594,-1.5905194282531738],"type":"VEC3"},{"bufferView":9,"componentType":5126,"count":528,"max":[0.7743622660636902,0.8580188155174255,0.7796587944030762],"min":[-0.7743632197380066,-0.8580373525619507,-0.7796705365180969],"type":"VEC3"},{"bufferView":10,"componentType":5126,"count":528,"max":[1,1],"min":[0,0],"type":"VEC2"},{"bufferView":11,"componentType":5123,"count":528,"max":[527],"min":[0],"type":"SCALAR"},{"bufferView":12,"componentType":5126,"count":840,"max":[7.942226409912109,-17.421621322631836,12.614355087280273],"min":[-7.986570358276367,-17.88678741455078,-2.157386541366577],"type":"VEC3"},{"bufferView":13,"componentType":5126,"count":840,"max":[0.9968072175979614,0.9996925592422485,0.9854199290275574],"min":[-0.9968076348304749,-0.9998791813850403,-0.985419750213623],"type":"VEC3"},{"bufferView":14,"componentType":5126,"count":840,"max":[0.1405813992023468,0.40427374839782715],"min":[0.0319361686706543,0.30899834632873535],"type":"VEC2"},{"bufferView":15,"componentType":5123,"count":840,"max":[839],"min":[0],"type":"SCALAR"},{"bufferView":16,"componentType":5126,"count":1272,"max":[7.908478736877441,-2.0922088623046875,12.564469337463379],"min":[-7.952823638916016,-17.703248977661133,-2.107501745223999],"type":"VEC3"},{"bufferView":17,"componentType":5126,"count":1272,"max":[0.9718554019927979,0.9374257326126099,0.9746184349060059],"min":[-0.9718554615974426,-0.9518396854400635,-0.9758437871932983],"type":"VEC3"},{"bufferView":18,"componentType":5126,"count":1272,"max":[0.9908894896507263,0.985334575176239],"min":[0.018290989100933075,0.02817404270172119],"type":"VEC2"},{"bufferView":19,"componentType":5123,"count":1272,"max":[1271],"min":[0],"type":"SCALAR"}],"materials":[{"pbrMetallicRoughness":{"baseColorFactor":[0.3309168364669132,0.008575820272813386,0.008575820272813386,1],"metallicFactor":0.001658801119657718,"roughnessFactor":0.7556447073857898},"normalTexture":{"index":0,"scale":1},"occlusionTexture":{"index":1},"doubleSided":true,"name":"eames_seat"},{"pbrMetallicRoughness":{"baseColorFactor":[0.013549161603469695,0.013549161603469695,0.013549161603469695,1],"metallicFactor":1,"roughnessFactor":0.8846608588621071},"doubleSided":true,"name":"eames_metal"},{"pbrMetallicRoughness":{"baseColorFactor":[0.2656836188929653,0.2656836188929653,0.2656836188929653,1],"metallicFactor":1,"roughnessFactor":0.6577107884961925},"doubleSided":true,"name":"eames_metal_nut"},{"pbrMetallicRoughness":{"baseColorFactor":[0.27839844261705876,0.27839844261705876,0.27839844261705876,1],"metallicFactor":0,"roughnessFactor":1},"occlusionTexture":{"index":2},"doubleSided":true,"name":"eames_stopper"},{"pbrMetallicRoughness":{"metallicFactor":0.001658801119657718,"roughnessFactor":0.6817034733962495,"baseColorTexture":{"index":3},"baseColorFactor":[1,1,1,1]},"occlusionTexture":{"index":4},"doubleSided":true,"name":"eames_legs"}],"textures":[{"name":"eames_seat_normal.jpeg","sampler":0,"source":0},{"name":"eames_seat_orm.png","sampler":1,"source":1},{"name":"eames_seat_orm.png","sampler":2,"source":1},{"name":"eames_legs_diffuse.png","sampler":3,"source":2},{"name":"eames_seat_orm.png","sampler":4,"source":1}],"images":[{"mimeType":"image/jpeg","uri":"eames_seat_normal.jpeg"},{"mimeType":"image/png","uri":"eames_seat_orm.png"},{"mimeType":"image/png","uri":"eames_legs_diffuse.png"}],"samplers":[{"magFilter":9729,"minFilter":9987},{"magFilter":9729,"minFilter":9987},{"magFilter":9729,"minFilter":9987},{"magFilter":9729,"minFilter":9987},{"magFilter":9729,"minFilter":9987}],"meshes":[{"primitives":[{"mode":4,"attributes":{"POSITION":0,"NORMAL":1,"TEXCOORD_0":2},"indices":3,"material":0}]},{"primitives":[{"mode":4,"attributes":{"POSITION":4,"NORMAL":5,"TEXCOORD_0":6},"indices":7,"material":1}]},{"primitives":[{"mode":4,"attributes":{"POSITION":8,"NORMAL":9,"TEXCOORD_0":10},"indices":11,"material":2}]},{"primitives":[{"mode":4,"attributes":{"POSITION":12,"NORMAL":13,"TEXCOORD_0":14},"indices":15,"material":3}]},{"primitives":[{"mode":4,"attributes":{"POSITION":16,"NORMAL":17,"TEXCOORD_0":18},"indices":19,"material":4}]}]}