{
  "accessors": [
    {
      "bufferView": 2,
      "componentType": 5126,
      "count": 65532,
      "max": [
        1.4989399909973145,
        1.2126799821853638,
        4.0855197906494141
      ],
      "min": [
        -1.538390040397644,
        -1.237339973449707,
        1.0559999942779541
      ],
      "type": "VEC3"
    },
    {
      "bufferView": 2,
      "byteOffset": 786384,
      "componentType": 5126,
      "count": 65532,
      "max": [
        0.99986392259597778,
        0.99998152256011963,
        0.99958902597427368
      ],
      "min": [
        -0.99995726346969604,
        -0.99985677003860474,
        -0.99931734800338745
      ],
      "type": "VEC3"
    },
    {
      "bufferView": 3,
      "componentType": 5126,
      "count": 65532,
      "max": [
        1,
        0.99691921472549438,
        0.9999997615814209,
        -1
      ],
      "min": [
        -0.99999994039535522,
        -0.99997955560684204,
        -1,
        -1
      ],
      "type": "VEC4"
    },
    {
      "bufferView": 1,
      "componentType": 5126,
      "count": 65532,
      "max": [
        0.99958997964859009,
        0.71362000703811646
      ],
      "min": [
        0.00023999999393709004,
        0.00047999998787418008
      ],
      "type": "VEC2"
    },
    {
      "bufferView": 0,
      "componentType": 5125,
      "count": 65532,
      "max": [
        65531
      ],
      "min": [
        0
      ],
      "type": "SCALAR"
    },
    {
      "bufferView": 2,
      "byteOffset": 1572768,
      "componentType": 5126,
      "count": 65532,
      "max": [
        1.5335700511932373,
        1.38264000415802,
        3.6303799152374268
      ],
      "min": [
        -1.5427999496459961,
        -1.5248700380325317,
        -2.6385300159454346
      ],
      "type": "VEC3"
    },
    {
      "bufferView": 2,
      "byteOffset": 2359152,
      "componentType": 5126,
      "count": 65532,
      "max": [
        0.99994093179702759,
        0.9999503493309021,
        0.99962806701660156
      ],
      "min": [
        -0.99998378753662109,
        -0.99994403123855591,
        -0.99622011184692383
      ],
      "type": "VEC3"
    },
    {
      "bufferView": 3,
      "byteOffset": 1048512,
      "componentType": 5126,
      "count": 65532,
      "max": [
        0.9999997615814209,
        0.99012225866317749,
        1,
        1
      ],
      "min": [
        -0.99999910593032837,
        -0.99940228462219238,
        -1,
        -1
      ],
      "type": "VEC4"
    },
    {
      "bufferView": 1,
      "byteOffset": 524256,
      "componentType": 5126,
      "count": 65532,
      "max": [
        0.9995499849319458,
        0.71460002660751343
      ],
      "min": [
        0.00023999999393709004,
        0.00076999998418614268
      ],
      "type": "VEC2"
    },
    {
      "bufferView": 0,
      "byteOffset": 262128,
      "componentType": 5125,
      "count": 65532,
      "max": [
        65531
      ],
      "min": [
        0
      ],
      "type": "SCALAR"
    },
    {
      "bufferView": 2,
      "byteOffset": 3145536,
      "componentType": 5126,
      "count": 65532,
      "max": [
        1.5335700511932373,
        1.6014399528503418,
        1.1841299533843994
      ],
      "min": [
        -1.2888599634170532,
        -1.4539599418640137,
        -2.5719399452209473
      ],
      "type": "VEC3"
    },
    {
      "bufferView": 2,
      "byteOffset": 3931920,
      "componentType": 5126,
      "count": 65532,
      "max": [
        0.99998068809509277,
        0.99999940395355225,
        0.99941104650497437
      ],
      "min": [
        -0.99988061189651489,
        -0.99996644258499146,
        -0.99992752075195312
      ],
      "type": "VEC3"
    },
    {
      "bufferView": 3,
      "byteOffset": 2097024,
      "componentType": 5126,
      "count": 65532,
      "max": [
        1,
        0.98445916175842285,
        0.99999964237213135,
        -1
      ],
      "min": [
        -1,
        -0.99990195035934448,
        -1,
        -1
      ],
      "type": "VEC4"
    },
    {
      "bufferView": 1,
      "byteOffset": 1048512,
      "componentType": 5126,
      "count": 65532,
      "max": [
        0.9995499849319458,
        0.71362000703811646
      ],
      "min": [
        0.0017099999822676182,
        0.11271999776363373
      ],
      "type": "VEC2"
    },
    {
      "bufferView": 0,
      "byteOffset": 524256,
      "componentType": 5125,
      "count": 65532,
      "max": [
        65531
      ],
      "min": [
        0
      ],
      "type": "SCALAR"
    },
    {
      "bufferView": 2,
      "byteOffset": 4718304,
      "componentType": 5126,
      "count": 65532,
      "max": [
        1.4757399559020996,
        1.3397300243377686,
        1.2087299823760986
      ],
      "min": [
        -1.4887100458145142,
        -1.7912100553512573,
        -4.6749000549316406
      ],
      "type": "VEC3"
    },
    {
      "bufferView": 2,
      "byteOffset": 5504688,
      "componentType": 5126,
      "count": 65532,
      "max": [
        0.99998557567596436,
        0.99998903274536133,
        0.99989950656890869
      ],
      "min": [
        -0.9999854564666748,
        -0.99995535612106323,
        -0.99770987033843994
      ],
      "type": "VEC3"
    },
    {
      "bufferView": 3,
      "byteOffset": 3145536,
      "componentType": 5126,
      "count": 65532,
      "max": [
        0.99999994039535522,
        0.99987173080444336,
        1,
        -1
      ],
      "min": [
        -1,
        -0.99407720565795898,
        -1,
        -1
      ],
      "type": "VEC4"
    },
    {
      "bufferView": 1,
      "byteOffset": 1572768,
      "componentType": 5126,
      "count": 65532,
      "max": [
        0.99950999021530151,
        0.71411001682281494
      ],
      "min": [
        0.00023999999393709004,
        0.10554999858140945
      ],
      "type": "VEC2"
    },
    {
      "bufferView": 0,
      "byteOffset": 786384,
      "componentType": 5125,
      "count": 65532,
      "max": [
        65531
      ],
      "min": [
        0
      ],
      "type": "SCALAR"
    },
    {
      "bufferView": 2,
      "byteOffset": 6291072,
      "componentType": 5126,
      "count": 1398,
      "max": [
        0.16502000391483307,
        -0.2667199969291687,
        -2.5239999294281006
      ],
      "min": [
        -1.4201699495315552,
        -1.7846599817276001,
        -4.640160083770752
      ],
      "type": "VEC3"
    },
    {
      "bufferView": 2,
      "byteOffset": 6307848,
      "componentType": 5126,
      "count": 1398,
      "max": [
        0.97366476058959961,
        0.98573142290115356,
        0.99139237403869629
      ],
      "min": [
        -0.99997961521148682,
        -0.99822312593460083,
        -0.97759062051773071
      ],
      "type": "VEC3"
    },
    {
      "bufferView": 3,
      "byteOffset": 4194048,
      "componentType": 5126,
      "count": 1398,
      "max": [
        0.99995231628417969,
        0.98435515165328979,
        0.99999916553497314,
        -1
      ],
      "min": [
        -0.99434620141983032,
        -0.78061378002166748,
        -0.99998408555984497,
        -1
      ],
      "type": "VEC4"
    },
    {
      "bufferView": 1,
      "byteOffset": 2097024,
      "componentType": 5126,
      "count": 1398,
      "max": [
        0.9470599889755249,
        0.71314001083374023
      ],
      "min": [
        0.15112000703811646,
        0.12786999344825745
      ],
      "type": "VEC2"
    },
    {
      "bufferView": 0,
      "byteOffset": 1048512,
      "componentType": 5125,
      "count": 1398,
      "max": [
        1397
      ],
      "min": [
        0
      ],
      "type": "SCALAR"
    }
  ],
  "asset": {
    "extras": {
      "author": "Abby Crawford (https://sketchfab.com/abbyec)",
      "license": "SKETCHFAB Standard (https://sketchfab.com/licenses)",
      "source": "https://sketchfab.com/models/f42f04daa38d4daf866b55b978079975",
      "title": "Peregrine Falcon"
    },
    "generator": "Sketchfab-3.54.3",
    "version": "2.0"
  },
  "bufferViews": [
    {
      "buffer": 0,
      "byteLength": 1054104,
      "byteOffset": 0,
      "name": "floatBufferViews",
      "target": 34963
    },
    {
      "buffer": 0,
      "byteLength": 2108208,
      "byteOffset": 1054104,
      "byteStride": 8,
      "name": "floatBufferViews",
      "target": 34962
    },
    {
      "buffer": 0,
      "byteLength": 6324624,
      "byteOffset": 3162312,
      "byteStride": 12,
      "name": "floatBufferViews",
      "target": 34962
    },
    {
      "buffer": 0,
      "byteLength": 4216416,
      "byteOffset": 9486936,
      "byteStride": 16,
      "name": "floatBufferViews",
      "target": 34962
    }
  ],
  "buffers": [
    {
      "byteLength": 13703352,
      "uri": "scene.bin"
    }
  ],
  "extensionsUsed": [
    "KHR_materials_unlit"
  ],
  "images": [
    {
      "uri": "textures/falcon_mesh_Material_u1_v1_baseColor.png"
    }
  ],
  "materials": [
    {
      "doubleSided": true,
      "emissiveFactor": [
        0,
        0,
        0
      ],
      "extensions": {
        "KHR_materials_unlit": {}
      },
      "name": "falcon_mesh_Material_u1_v1",
      "pbrMetallicRoughness": {
        "baseColorFactor": [
          1,
          1,
          1,
          1
        ],
        "baseColorTexture": {
          "index": 0,
          "texCoord": 0
        },
        "metallicFactor": 0,
        "roughnessFactor": 1
      }
    }
  ],
  "meshes": [
    {
      "name": "default_0",
      "primitives": [
        {
          "attributes": {
            "NORMAL": 1,
            "POSITION": 0,
            "TANGENT": 2,
            "TEXCOORD_0": 3
          },
          "indices": 4,
          "material": 0,
          "mode": 4
        }
      ]
    },
    {
      "name": "default_0",
      "primitives": [
        {
          "attributes": {
            "NORMAL": 6,
            "POSITION": 5,
            "TANGENT": 7,
            "TEXCOORD_0": 8
          },
          "indices": 9,
          "material": 0,
          "mode": 4
        }
      ]
    },
    {
      "name": "default_0",
      "primitives": [
        {
          "attributes": {
            "NORMAL": 11,
            "POSITION": 10,
            "TANGENT": 12,
            "TEXCOORD_0": 13
          },
          "indices": 14,
          "material": 0,
          "mode": 4
        }
      ]
    },
    {
      "name": "default_0",
      "primitives": [
        {
          "attributes": {
            "NORMAL": 16,
            "POSITION": 15,
            "TANGENT": 17,
            "TEXCOORD_0": 18
          },
          "indices": 19,
          "material": 0,
          "mode": 4
        }
      ]
    },
    {
      "name": "default_0",
      "primitives": [
        {
          "attributes": {
            "NORMAL": 21,
            "POSITION": 20,
            "TANGENT": 22,
            "TEXCOORD_0": 23
          },
          "indices": 24,
          "material": 0,
          "mode": 4
        }
      ]
    }
  ],
  "nodes": [
    {
      "children": [
        1
      ],
      "name": "RootNode (gltf orientation matrix)",
      "rotation": [
        -0.70710678118654746,
        -0,
        -0,
        0.70710678118654757
      ]
    },
    {
      "children": [
        2
      ],
      "name": "RootNode (model correction matrix)"
    },
    {
      "children": [
        3,
        5,
        11
      ],
      "name": "Root"
    },
    {
      "children": [
        4
      ],
      "matrix": [
        -0.29086000000000006,
        0.95517000000000007,
        -0.05519000000000001,
        0,
        -0.77110000000000001,
        -0.19988000000000003,
        0.60452000000000006,
        0,
        0.56639000000000006,
        0.21839000000000003,
        0.7946700000000001,
        0,
        4.0762500000000008,
        1.00545,
        5.9038600000000008,
        1
      ],
      "name": "Lamp"
    },
    {
      "name": "Lamp"
    },
    {
      "children": [
        6,
        7,
        8,
        9,
        10
      ],
      "matrix": [
        0.96132000000000006,
        0.27351000000000003,
        0.032660000000000008,
        0,
        -0.27482000000000006,
        0.96035999999999999,
        0.046800000000000015,
        0,
        -0.018560000000000004,
        -0.053970000000000011,
        0.99836999999999998,
        0,
        -0.93255999999999994,
        0.92497000000000007,
        4.75,
        1
      ],
      "name": "default"
    },
    {
      "mesh": 0,
      "name": "default_0"
    },
    {
      "mesh": 1,
      "name": "default_0"
    },
    {
      "mesh": 2,
      "name": "default_0"
    },
    {
      "mesh": 3,
      "name": "default_0"
    },
    {
      "mesh": 4,
      "name": "default_0"
    },
    {
      "children": [
        12
      ],
      "matrix": [
        1,
        0,
        0,
        0,
        0,
        1,
        0,
        0,
        0,
        0,
        1,
        0,
        -2.42021,
        -8.0991499999999998,
        13.323309999999999,
        1
      ],
      "name": "Hemi"
    },
    {
      "name": "Hemi"
    }
  ],
  "samplers": [
    {
      "magFilter": 9729,
      "minFilter": 9987,
      "wrapS": 10497,
      "wrapT": 10497
    }
  ],
  "scene": 0,
  "scenes": [
    {
      "name": "OSG_Scene",
      "nodes": [
        0
      ]
    }
  ],
  "textures": [
    {
      "sampler": 0,
      "source": 0
    }
  ]
}

